#!OML:ASF F:\VICON\USERDATA\INSTALL\rory3\rory3.ASF
:FULLY-SPECIFIED
:DEGREES
2166
root 0.979387 15.4951 -0.742034 3.05117 -5.88135 9.40937
lowerback 20.6762 -0.459513 10.9693
upperback 4.1409 2.69803 11.9935
thorax -7.16199 1.17153 6.35116
lowerneck -14.2312 -3.43573 -3.96114
upperneck 7.10879 -5.00196 10.6806
head 4.84702 -1.88317 3.56084
rclavicle -4.92986e-014 -9.85972e-014
rhumerus -0.656086 -40.9694 -18.251
rradius 65.669
rwrist 26.9865
rhand 17.4059 3.62769
rfingers 7.12502
rthumb 42.1113 -20.925
lclavicle -4.92986e-014 -9.85972e-014
lhumerus -75.7538 -46.8642 111.023
lradius 99.8538
lwrist 31.7304
lhand 24.4738 24.9515
lfingers 7.12502
lthumb 48.6776 46.8419
rfemur -26.2191 13.1846 1.77306
rtibia 44.9526
rfoot -17.7201 -13.0144
rtoes -20.9439
lfemur -17.8506 2.60307 -29.4885
ltibia 32.0427
lfoot -12.9487 0.40817
ltoes -2.43458
2167
root 0.96603 15.509 -0.738729 3.11942 -5.80061 8.95343
lowerback 20.4123 -0.624609 10.8024
upperback 3.66113 2.49144 12.0724
thorax -7.56527 1.06799 6.60836
lowerneck -11.8698 -3.27747 -4.77161
upperneck 6.30523 -4.63883 10.8078
head 4.20366 -1.81212 3.78248
rclavicle -6.36111e-015 -6.36111e-014
rhumerus -1.00724 -39.6126 -18.2881
rradius 65.9089
rwrist 27.0459
rhand 17.5147 3.53263
rfingers 7.12502
rthumb 42.2132 -20.9856
lclavicle -6.36111e-015 -6.36111e-014
lhumerus -76.8849 -45.6133 111.701
lradius 99.9829
lwrist 31.5766
lhand 24.6022 25.0994
lfingers 7.12502
lthumb 48.7957 46.9322
rfemur -25.968 13.2849 2.34638
rtibia 44.4913
rfoot -17.6018 -13.1019
rtoes -20.5803
lfemur -17.7798 2.4593 -28.9328
ltibia 31.8653
lfoot -12.8598 0.531651
ltoes -2.5333
2168
root 0.95619 15.5259 -0.732577 3.19526 -5.73142 8.47483
lowerback 20.0858 -0.582427 10.855
upperback 3.69977 2.48246 12.0176
thorax -7.33867 1.0663 6.50557
lowerneck -11.9733 -3.30327 -4.65204
upperneck 6.08558 -4.64967 10.5815
head 4.14563 -1.82929 3.68983
rclavicle 6.36111e-015 6.67916e-014
rhumerus -1.48632 -39.6389 -18.3667
rradius 66.0595
rwrist 27.1549
rhand 17.601 3.50325
rfingers 7.12502
rthumb 42.2941 -20.9875
lclavicle 6.36111e-015 6.67916e-014
lhumerus -76.4726 -45.657 111.247
lradius 100.093
lwrist 31.8407
lhand 24.6842 25.5445
lfingers 7.12502
lthumb 48.8711 47.3404
rfemur -25.6929 13.3529 2.93071
rtibia 44.0202
rfoot -17.5031 -13.1051
rtoes -20.255
lfemur -17.697 2.26 -28.3609
ltibia 31.7057
lfoot -12.8372 0.61175
ltoes -2.32714
2169
root 0.947258 15.5432 -0.721686 3.25133 -5.69772 8.23342
lowerback 19.7619 -0.510183 10.6547
upperback 3.6548 2.47285 11.9152
thorax -7.21643 1.06806 6.49369
lowerneck -11.7881 -3.32029 -4.66738
upperneck 5.77823 -4.63931 10.4776
head 4.01819 -1.84311 3.66203
rclavicle 2.8625e-014 1.27222e-014
rhumerus -2.05469 -39.459 -18.3354
rradius 66.1694
rwrist 27.1895
rhand 17.6489 3.44352
rfingers 7.12502
rthumb 42.3389 -21.032
lclavicle 2.8625e-014 1.27222e-014
lhumerus -76.3542 -45.6617 111.07
lradius 100.176
lwrist 31.9766
lhand 24.832 25.8879
lfingers 7.12502
lthumb 49.0069 47.6169
rfemur -25.4223 13.3682 3.23921
rtibia 43.5635
rfoot -17.3612 -13.0516
rtoes -19.9918
lfemur -17.5742 2.02192 -28.0569
ltibia 31.5223
lfoot -12.8546 0.751743
ltoes -2.60214
2170
root 0.936827 15.5583 -0.709454 3.25985 -5.67685 7.95237
lowerback 19.5706 -0.459125 10.4505
upperback 3.6047 2.46545 11.8501
thorax -7.17402 1.06968 6.53127
lowerneck -11.708 -3.33625 -4.7396
upperneck 5.5237 -4.61865 10.3417
head 3.9237 -1.85031 3.63374
rclavicle 2.06736e-014 7.95139e-014
rhumerus -2.53333 -39.2415 -18.3497
rradius 66.3061
rwrist 27.2287
rhand 17.6868 3.4396
rfingers 7.12502
rthumb 42.3744 -21.0238
lclavicle 2.06736e-014 7.95139e-014
lhumerus -76.2613 -45.5731 110.955
lradius 100.212
lwrist 31.9969
lhand 24.9986 26.1338
lfingers 7.12502
lthumb 49.1599 47.7867
rfemur -25.1007 13.3803 3.61492
rtibia 43.1066
rfoot -17.1788 -12.9892
rtoes -19.6447
lfemur -17.347 1.80014 -27.7041
ltibia 31.2785
lfoot -12.8338 0.898519
ltoes -2.75462
2171
root 0.925335 15.5715 -0.696861 3.26705 -5.64922 7.65708
lowerback 19.3847 -0.418734 10.3059
upperback 3.5632 2.45372 11.753
thorax -7.12002 1.0674 6.49937
lowerneck -11.7236 -3.35936 -4.73216
upperneck 5.2989 -4.61942 10.1921
head 3.85363 -1.86316 3.58576
rclavicle 1.43125e-014 -5.40694e-014
rhumerus -3.06506 -39.0987 -18.4275
rradius 66.472
rwrist 27.2277
rhand 17.6562 3.62618
rfingers 7.12502
rthumb 42.3457 -20.847
lclavicle 1.43125e-014 -5.40694e-014
lhumerus -76.1408 -45.5324 110.76
lradius 100.276
lwrist 32.0971
lhand 25.1657 26.3658
lfingers 7.12502
lthumb 49.3133 47.9417
rfemur -24.7722 13.3402 4.02043
rtibia 42.6529
rfoot -16.9765 -12.9989
rtoes -19.8117
lfemur -17.103 1.60037 -27.3393
ltibia 30.9847
lfoot -12.7686 1.08111
ltoes -2.77248
2172
root 0.91283 15.589 -0.683684 3.28107 -5.57938 7.39751
lowerback 19.1753 -0.385423 10.1572
upperback 3.46444 2.43698 11.6363
thorax -7.11608 1.06157 6.45057
lowerneck -11.4834 -3.3925 -4.75474
upperneck 4.98019 -4.62911 10.0447
head 3.71463 -1.88978 3.54544
rclavicle -3.18055e-015 9.54166e-015
rhumerus -3.75416 -38.8823 -18.4051
rradius 66.6739
rwrist 27.1003
rhand 17.5444 3.79113
rfingers 7.12502
rthumb 42.241 -20.7177
lclavicle -3.18055e-015 9.54166e-015
lhumerus -76.1684 -45.492 110.643
lradius 100.373
lwrist 32.1402
lhand 25.3684 26.5422
lfingers 7.12502
lthumb 49.4991 48.024
rfemur -24.421 13.3193 4.39313
rtibia 42.1834
rfoot -16.8474 -13.0242
rtoes -19.6864
lfemur -16.8559 1.36778 -27.0165
ltibia 30.6726
lfoot -12.718 1.29923
ltoes -3.25566
2173
root 0.90091 15.6083 -0.670303 3.34426 -5.46867 7.1197
lowerback 18.9888 -0.378007 10.0229
upperback 3.25783 2.41468 11.544
thorax -7.24532 1.05037 6.42897
lowerneck -11.0905 -3.40822 -4.90472
upperneck 4.78179 -4.6172 9.96491
head 3.5903 -1.90599 3.55036
rclavicle 2.70347e-014 1.08139e-013
rhumerus -4.45399 -38.3794 -18.2804
rradius 66.8196
rwrist 26.8512
rhand 17.4441 3.95082
rfingers 7.12502
rthumb 42.1471 -20.5897
lclavicle 2.70347e-014 1.08139e-013
lhumerus -76.3901 -45.3651 110.723
lradius 100.375
lwrist 32.0585
lhand 25.5063 26.3699
lfingers 7.12502
lthumb 49.6256 47.7871
rfemur -24.0918 13.3304 4.76997
rtibia 41.7031
rfoot -16.7338 -13.0691
rtoes -19.2996
lfemur -16.652 1.14007 -26.6681
ltibia 30.3336
lfoot -12.6909 1.41769
ltoes -3.34062
2174
root 0.889697 15.6256 -0.656685 3.35561 -5.42121 6.87063
lowerback 18.9937 -0.336649 9.82394
upperback 3.03366 2.46266 11.4715
thorax -7.5056 1.07273 6.4546
lowerneck -10.9186 -3.45574 -5.06861
upperneck 4.78269 -4.65064 9.81375
head 3.56402 -1.93755 3.52988
rclavicle -3.02153e-014 -1.59028e-014
rhumerus -5.13844 -37.8544 -18.1065
rradius 67.0046
rwrist 26.6163
rhand 17.5738 4.03869
rfingers 7.12502
rthumb 42.2686 -20.4607
lclavicle -3.02153e-014 -1.59028e-014
lhumerus -76.5743 -45.1867 110.843
lradius 100.345
lwrist 32.0125
lhand 25.6186 26.2273
lfingers 7.12502
lthumb 49.7284 47.5915
rfemur -23.7327 13.3796 5.1177
rtibia 41.2107
rfoot -16.5483 -13.0994
rtoes -19.2669
lfemur -16.3993 0.994903 -26.362
ltibia 29.9688
lfoot -12.6448 1.57843
ltoes -3.60271
2175
root 0.877646 15.6424 -0.642827 3.34864 -5.42867 6.6229
lowerback 19.2188 -0.25771 9.61952
upperback 2.78225 2.59933 11.3795
thorax -7.92112 1.13505 6.44462
lowerneck -10.9385 -3.53092 -5.1501
upperneck 4.78776 -4.72402 9.61666
head 3.57029 -1.98404 3.47685
rclavicle -3.18055e-015 -6.67916e-014
rhumerus -5.85013 -37.4463 -17.982
rradius 67.2447
rwrist 26.5736
rhand 17.7765 4.05353
rfingers 7.12502
rthumb 42.4583 -20.3811
lclavicle -3.18055e-015 -6.67916e-014
lhumerus -76.8621 -45.0511 111.028
lradius 100.406
lwrist 32.0796
lhand 25.6136 26.4097
lfingers 7.12502
lthumb 49.7239 47.7762
rfemur -23.3844 13.501 5.45796
rtibia 40.7273
rfoot -16.4215 -13.0605
rtoes -18.5587
lfemur -16.1223 0.834421 -26.05
ltibia 29.5924
lfoot -12.4927 1.83742
ltoes -4.07763
2176
root 0.864421 15.659 -0.629568 3.32999 -5.42655 6.3687
lowerback 19.3987 -0.188606 9.42638
upperback 2.52807 2.714 11.2654
thorax -8.31328 1.18707 6.40729
lowerneck -10.7721 -3.58065 -5.19844
upperneck 4.67624 -4.7683 9.4515
head 3.50892 -2.02105 3.43273
rclavicle 3.65764e-014 8.26944e-014
rhumerus -6.51431 -37.0031 -17.9274
rradius 67.4229
rwrist 26.5347
rhand 17.8526 3.82608
rfingers 7.12502
rthumb 42.5296 -20.584
lclavicle 3.65764e-014 8.26944e-014
lhumerus -77.2411 -44.9636 111.223
lradius 100.487
lwrist 32.189
lhand 25.6942 26.7073
lfingers 7.12502
lthumb 49.7977 48.0356
rfemur -23.0066 13.6535 5.82296
rtibia 40.2486
rfoot -16.3228 -13.0983
rtoes -17.9513
lfemur -15.8216 0.638217 -25.7193
ltibia 29.2192
lfoot -12.3806 2.06885
ltoes -4.38521
2177
root 0.852572 15.6738 -0.615285 3.31644 -5.41062 6.22563
lowerback 19.3584 -0.150393 9.13998
upperback 2.37383 2.71176 11.1376
thorax -8.46976 1.19101 6.42804
lowerneck -10.6306 -3.60229 -5.31453
upperneck 4.55646 -4.76907 9.33898
head 3.44899 -2.03485 3.4189
rclavicle -1.11319e-014 -8.26944e-014
rhumerus -7.07716 -36.5057 -17.9629
rradius 67.624
rwrist 26.4244
rhand 17.843 3.60706
rfingers 7.12502
rthumb 42.5206 -20.8061
lclavicle -1.11319e-014 -8.26944e-014
lhumerus -77.3969 -44.7952 111.248
lradius 100.5
lwrist 32.3525
lhand 25.7855 26.9971
lfingers 7.12502
lthumb 49.8813 48.282
rfemur -22.646 13.7446 6.05714
rtibia 39.7879
rfoot -16.2132 -13.1582
rtoes -17.8604
lfemur -15.5273 0.433367 -25.5267
ltibia 28.8626
lfoot -12.2496 2.30137
ltoes -5.25712
2178
root 0.841654 15.6888 -0.599265 3.31392 -5.299 6.05501
lowerback 19.1789 -0.149477 8.97333
upperback 2.34683 2.64006 10.993
thorax -8.39583 1.16098 6.37077
lowerneck -10.8584 -3.64149 -5.33593
upperneck 4.4703 -4.7924 9.17555
head 3.4575 -2.05025 3.36786
rclavicle 1.59028e-014 -7.95139e-014
rhumerus -7.60018 -36.3328 -18.1072
rradius 67.8799
rwrist 26.4533
rhand 17.8131 3.70511
rfingers 7.12502
rthumb 42.4927 -20.7177
lclavicle 1.59028e-014 -7.95139e-014
lhumerus -77.214 -44.7327 110.973
lradius 100.557
lwrist 32.458
lhand 25.953 27.3191
lfingers 7.12502
lthumb 50.0346 48.5236
rfemur -22.2662 13.6893 6.32476
rtibia 39.3282
rfoot -16.0439 -13.1994
rtoes -17.909
lfemur -15.2302 0.162276 -25.3115
ltibia 28.514
lfoot -12.1504 2.51167
ltoes -6.23434
